<?xml version="1.0" encoding="UTF-8"?>
<svg id="Layer_1" data-name="Layer 1" xmlns="http://www.w3.org/2000/svg" viewBox="0 0 514.01 336.08">
  <defs>
    <style>
      .cls-1 {
        fill: #231f20;
        stroke-width: 0px;
      }
    </style>
  </defs>
  <path class="cls-1" d="M62.08,2.03c-11.43-.08-22.87-.18-34.3-.24-2.55-.01-5.18,0-7.64.75s-4.47,2.13-6.18,3.92c-3.22,3.37-5.55,7.75-7.38,12C-1.3,36.74.04,57.48.16,76.94c.07,11.26.1,22.53.2,33.79.05,5.33.4,10.62,2.55,15.56,1.84,4.24,4.81,7.96,8.15,11.13,13.46,12.78,32.9,18.47,51.17,15.65,17.23-2.67,32.92-13.51,42.03-28.31,1.11-1.81,2.11-3.68,3.02-5.59.58-1.22.34-2.7-.9-3.42-1.09-.64-2.84-.33-3.42.9-6.88,14.6-20.1,25.88-35.67,30.23-16.38,4.58-34.52.92-48.16-9.16-3.32-2.46-6.52-5.38-8.94-8.75-2.69-3.74-4.22-7.88-4.61-12.47-.44-5.15-.25-10.39-.28-15.56-.03-5.44-.06-10.88-.09-16.32-.06-10.1-.28-20.21-.04-30.3.21-8.95.92-17.96,3.39-26.6,1.22-4.27,2.87-8.38,5.08-12.23,2.07-3.6,4.55-7.47,8.89-8.39,2.35-.5,4.86-.3,7.24-.28l7.95.06,16.41.12,7.95.06c3.22.02,3.22-4.98,0-5h0Z"/>
  <path class="cls-1" d="M167.13,14.86c-15.99,15.33-19.9,38.33-20.46,59.53-.15,5.54-.07,11.09.11,16.63.21,6.65.63,13.33,1.9,19.87,2.19,11.27,7.49,22.22,17.01,29.06s22.37,6.88,32.96,1.94,18.18-14.67,22.86-25.12c9.93-22.21,9.24-48.53-1.17-70.44-9.46-19.9-27.2-35.47-47.87-42.9-2.5-.9-5.05-1.67-7.63-2.32-3.12-.78-4.45,4.04-1.33,4.82,19.79,4.98,37.4,17.76,48.21,35.07,11.97,19.16,15.03,43.38,8.5,64.98-3.1,10.27-8.4,20.2-16.82,27.08s-19.53,9.55-29.44,5.76c-9.38-3.59-15.66-12.86-18.63-22.08-3.65-11.35-3.69-23.65-3.73-35.46-.07-19.56,1.67-41.36,14.11-57.42,1.51-1.95,3.19-3.76,4.96-5.47,2.33-2.23-1.21-5.76-3.54-3.54h0Z"/>
  <path class="cls-1" d="M297.93,8.71c-7.84,11.17-14.71,23.01-20.47,35.38-2.91,6.26-5.6,12.65-7.92,19.15s-4.09,13.34-3.95,20.31c.27,12.86,6.28,24.71,13.34,35.15,3.59,5.3,7.4,10.56,11.54,15.44s9.13,8.95,15.41,10.71c6.6,1.85,13.75,1.64,20.54,1.49,7.32-.17,14.62-.75,21.88-1.72,6.19-.83,12.73-1.55,18.35-4.47s8.77-8.06,9.85-14.08c1.16-6.45.9-13.26.8-19.78-.11-7.15-.63-14.35-2.3-21.32-3.19-13.26-10.86-24.77-18.26-36-6.94-10.53-14.18-21.24-24.06-29.25s-21.77-12.9-34.11-11.52c-2.99.33-5.89.98-8.69,2.08-1.26.49-2.13,1.68-1.75,3.08.33,1.2,1.81,2.24,3.08,1.75,10.67-4.18,22.5-1.61,32.09,4.1,10.23,6.08,17.84,15.72,24.49,25.39,3.51,5.1,6.91,10.27,10.22,15.5,3.39,5.36,6.64,10.89,9.08,16.76,5.23,12.57,5.39,26.02,5.18,39.42-.08,5.22-.16,10.95-3.2,15.44s-8.78,5.89-13.74,6.82c-6.64,1.24-13.4,1.97-20.14,2.43s-13.66.72-20.44.28c-5.9-.38-11.52-1.85-16.06-5.79s-7.79-8.63-11.2-13.26c-7.12-9.68-14-20.25-16.26-32.26-2.36-12.61,2.54-24.83,7.39-36.25,5.09-12,11.23-23.56,18.28-34.52,1.72-2.68,3.5-5.32,5.33-7.92.78-1.11.2-2.78-.9-3.42-1.25-.73-2.64-.21-3.42.9h0Z"/>
  <path class="cls-1" d="M384.23,2.41c-.07,31.89-.13,63.79-.2,95.68-.01,6.81-.84,14.42,2.18,20.75,2.69,5.62,8.59,8.39,14.45,9.39,6.79,1.16,13.84,1.02,20.7,1.19,7.95.2,15.91.27,23.87.23,17.9-.09,35.8-.79,53.65-2.06,1.35-.1,2.5-1.08,2.5-2.5,0-1.28-1.15-2.6-2.5-2.5-15.54,1.11-31.11,1.78-46.69,2-15.1.21-30.32.26-45.41-.67-5.05-.31-10.95-1.04-14.55-4.99-4.17-4.57-3.21-12.17-3.2-17.84.03-15.45.06-30.9.1-46.35.04-17.44.07-34.88.11-52.33,0-3.22-4.99-3.22-5,0h0Z"/>
  <path class="cls-1" d="M39.22,220.84c-.05,26.59-.09,53.18-.14,79.77,0,3.02-.2,6.11.08,9.12s1.25,5.56,3.7,7.32c2.24,1.61,5.18,2.06,7.8,2.66,3.14.72,6.28,1.39,9.44,2.01,12.6,2.49,25.37,4.22,38.18,5.2,14.44,1.1,28.94,1.21,43.39.35,3.2-.19,3.22-5.19,0-5-24.83,1.48-49.82.09-74.31-4.26-6.14-1.09-12.27-2.32-18.33-3.81-2.03-.5-4.05-1.06-4.65-3.29-.69-2.53-.31-5.46-.31-8.05.02-12.88.04-25.76.07-38.64l.08-43.37c0-3.22-4.99-3.22-5,0h0Z"/>
  <path class="cls-1" d="M191.43,224.25c-11.2-2.24-21.9,3.8-28.6,12.52-7.45,9.71-9.16,22.41-9.59,34.29-.22,6.09-.41,12.28.03,18.36s1.75,12,5.28,16.95c6.09,8.56,16.31,12.5,26.14,14.99,5.82,1.47,11.76,2.71,17.71,3.49,6.43.84,13.1.88,19.35-1.04,9.43-2.9,16.75-9.72,22.02-17.87s8.81-17.82,11.55-27.28c1.64-5.66,3.5-11.61,3.34-17.56-.17-6.46-3.3-11.74-7.75-16.23s-8.98-8.29-13.63-12.17-9.7-7.74-15.05-10.86c-10.48-6.11-22.8-9.63-34.94-7.45-2.98.54-5.82,1.5-8.57,2.75-1.23.56-1.53,2.34-.9,3.42.74,1.26,2.19,1.46,3.42.9,9.99-4.55,21.89-3.03,31.7,1.23,10.55,4.59,19.42,12.15,27.93,19.73,3.94,3.51,8.38,6.99,10.96,11.7,2.85,5.2,1.81,11.2.44,16.68-2.26,9-5.04,18.04-9.24,26.34-3.84,7.6-9.04,14.86-16.54,19.19-9.93,5.74-21.48,4.28-32.22,2.07-9.15-1.88-19.07-3.93-26.66-9.72-3.71-2.83-6.5-6.66-7.9-11.13-1.65-5.27-1.69-10.86-1.66-16.33.06-11.39.01-23.34,4.47-34.04,3.67-8.81,11.4-16.61,21.08-18.25,2.13-.36,4.36-.3,6.47.13,1.32.26,2.7-.38,3.08-1.75.34-1.23-.42-2.81-1.75-3.08h0Z"/>
  <path class="cls-1" d="M356.04,218.36c-10.06-.02-20.13-.03-30.19-.05-5.11,0-10.23-.02-15.34-.03-3.99,0-7.99-.07-11.92.71-3.52.69-7.03,2.26-9.32,5.11-2.92,3.65-3.31,8.37-3.86,12.84-1.21,9.8-1.76,19.68-1.65,29.55s.91,19.69,2.3,29.45c1.19,8.33,2.45,17.01,5.98,24.72,3.28,7.17,9.24,12.68,17.25,13.69s15.53-2.23,21.03-7.43c13.49-12.74,12.6-32.81,15.29-49.67.37-2.35.83-4.68,1.4-6.98l-1.15,1.49c.7-.47-.74-.06-.6-.21.05-.05.37.28.35.24.44.5.71,1.19.89,1.82.56,1.95.4,4.35.52,6.43.29,4.98.58,9.96.87,14.94.58,9.96,1.16,19.92,1.74,29.88.19,3.2,5.19,3.22,5,0-.69-11.87-1.38-23.74-2.07-35.61-.17-2.99-.35-5.98-.52-8.96-.15-2.6.01-5.48-.71-8.01-.58-2.02-1.78-4.23-3.76-5.15-1.2-.56-2.53-.58-3.72.02-1.5.75-1.75,2.13-2.08,3.63-2.38,10.75-2.29,21.89-4.78,32.62-2.03,8.73-5.94,17.93-13.9,22.79-6.9,4.22-16.13,4.87-22.18-1.19-2.94-2.95-4.75-6.84-6.02-10.75-1.51-4.68-2.38-9.57-3.2-14.42-1.88-11.18-2.84-22.51-2.95-33.84-.05-5.78.12-11.56.52-17.32.38-5.45.76-11.03,1.81-16.39.42-2.15,1.09-4.22,2.72-5.76,1.27-1.21,2.91-1.9,4.58-2.36,4.39-1.2,9.1-.89,13.6-.88,11.8.02,23.59.04,35.39.06,2.89,0,5.77,0,8.66.01,3.22,0,3.22-4.99,0-5h0Z"/>
  <path class="cls-1" d="M319.3,276.26c17.71,1.03,35.49.5,53.1-1.57,1.34-.16,2.5-1.04,2.5-2.5,0-1.23-1.15-2.66-2.5-2.5-17.62,2.07-35.39,2.6-53.1,1.57-3.21-.19-3.2,4.81,0,5h0Z"/>
  <path class="cls-1" d="M445.87,222.45c-6.7-.04-13.39-.07-20.09-.11-2.93-.02-6.1-.09-8.68,1.53-2.36,1.49-3.75,3.86-4.78,6.39-2.3,5.64-3.77,11.75-5.04,17.69-1.34,6.25-2.28,12.6-2.81,18.98s-.64,12.5-.36,18.74.82,12.53,2.35,18.56c1.41,5.55,3.84,10.71,7.5,15.13,3.29,3.98,7.53,7.21,12.06,9.66,10.49,5.67,22.49,7.11,34.26,7.05,3.29-.02,6.57-.14,9.85-.3s6.43-.24,9.61-.66,5.97-1.26,8.59-2.91c2.37-1.49,4.46-3.41,6.4-5.42,7.47-7.76,15.61-16.54,18.38-27.24,2.99-11.54-1.93-22.55-8.3-31.98-3.08-4.57-6.42-8.98-9.79-13.34-3.15-4.08-6.43-8.07-9.97-11.81-7.02-7.42-15.26-13.98-25.02-17.35-2.34-.81-4.75-1.39-7.2-1.77-1.33-.21-2.69.34-3.08,1.75-.33,1.19.4,2.87,1.75,3.08,19.34,3,32.55,19.56,43.52,34.34,6.01,8.1,13.11,17.17,13.96,27.61s-5.33,19.24-11.86,26.71c-1.7,1.94-3.44,3.85-5.21,5.74s-3.5,3.66-5.59,5.06c-4.83,3.23-10.84,2.96-16.42,3.22-11.51.55-23.37.72-34.42-3.05-8.86-3.03-17.08-8.72-21.42-17.2-2.51-4.9-3.63-10.46-4.25-15.89-.67-5.85-.92-11.76-.84-17.64.17-11.9,1.83-23.75,4.95-35.24.77-2.83,1.61-5.65,2.57-8.43.63-1.84,1.42-4.04,3.13-5.15,2.09-1.36,5.26-.85,7.62-.84,3.1.02,6.21.03,9.31.05l9.31.05c3.22.02,3.22-4.98,0-5h0Z"/>
  <path class="cls-1" d="M433.61,266.2c3.22,0,3.22-5,0-5s-3.22,5,0,5h0Z"/>
  <path class="cls-1" d="M470.36,260.08c3.22,0,3.22-5,0-5s-3.22,5,0,5h0Z"/>
  <path class="cls-1" d="M445.24,292.28c-.05,7.06,5.47,13.56,12.33,15.03s13.5-2.4,16.32-8.66c1.56-3.48,2.03-7.41.76-11.07-.44-1.28-1.71-2.12-3.08-1.75-1.24.34-2.19,1.79-1.75,3.08,1.84,5.33-1.46,12.04-7.16,13.5-6.08,1.56-12.47-4.06-12.43-10.14.02-3.22-4.98-3.22-5,0h0Z"/>
</svg>