<svg viewBox="-497.15 -261.63 994.3 523.26" xmlns="http://www.w3.org/2000/svg">
  <circle cx="0" cy="0" r="40" fill="red" />
  <path fill="green" d="M183.54,193.8V34.2h70.22c12.01,0,23.03,1.98,33.06,5.93,10.03,3.95,18.77,9.46,26.22,16.53,7.45,7.07,13.18,15.47,17.21,25.19,4.03,9.73,6.04,20.45,6.04,32.15s-2.02,22.23-6.04,32.03c-4.03,9.8-9.77,18.24-17.21,25.31-7.45,7.07-16.19,12.58-26.22,16.53-10.03,3.95-21.05,5.93-33.06,5.93h-70.22ZM232.79,163.47l-8.44-11.63h28.27c5.02,0,9.58-.95,13.68-2.85,4.1-1.9,7.67-4.52,10.72-7.87,3.04-3.34,5.39-7.33,7.07-11.97,1.67-4.63,2.51-9.69,2.51-15.16s-.84-10.52-2.51-15.16c-1.67-4.63-4.03-8.62-7.07-11.97-3.04-3.34-6.61-5.96-10.72-7.87-4.1-1.9-8.66-2.85-13.68-2.85h-28.96l9.12-11.17v98.5Z"/>
</svg>