<?xml version="1.0" encoding="UTF-8"?>
<svg id="Layer_1" data-name="Layer 1" xmlns="http://www.w3.org/2000/svg" viewBox="0 0 994.3 523.26">
  <defs>
    <style>
      .cls-1 {
        fill: #231f20;
        stroke-width: 0px;
      }
    </style>
  </defs>
  <path class="cls-1" d="M183.54,193.8V34.2h70.22c12.01,0,23.03,1.98,33.06,5.93,10.03,3.95,18.77,9.46,26.22,16.53,7.45,7.07,13.18,15.47,17.21,25.19,4.03,9.73,6.04,20.45,6.04,32.15s-2.02,22.23-6.04,32.03c-4.03,9.8-9.77,18.24-17.21,25.31-7.45,7.07-16.19,12.58-26.22,16.53-10.03,3.95-21.05,5.93-33.06,5.93h-70.22ZM232.79,163.47l-8.44-11.63h28.27c5.02,0,9.58-.95,13.68-2.85,4.1-1.9,7.67-4.52,10.72-7.87,3.04-3.34,5.39-7.33,7.07-11.97,1.67-4.63,2.51-9.69,2.51-15.16s-.84-10.52-2.51-15.16c-1.67-4.63-4.03-8.62-7.07-11.97-3.04-3.34-6.61-5.96-10.72-7.87-4.1-1.9-8.66-2.85-13.68-2.85h-28.96l9.12-11.17v98.5Z"/>
  <path class="cls-1" d="M336.3,193.8l64.07-159.6h38.76l63.61,159.6h-48.79l-25.54-69.77c-1.67-4.71-3.12-8.74-4.33-12.08-1.22-3.34-2.28-6.5-3.19-9.46-.91-2.96-1.82-6.16-2.74-9.58s-1.82-7.48-2.74-12.2h7.75c-.91,4.71-1.82,8.78-2.74,12.2-.91,3.42-1.86,6.61-2.85,9.58-.99,2.96-2.13,6.12-3.42,9.46-1.29,3.35-2.77,7.37-4.45,12.08l-25.54,69.77h-47.88ZM368.22,170.09l14.36-33.52h74.1l13,33.52h-101.46Z"/>
  <path class="cls-1" d="M516.42,193.8V34.2h74.78c11.09,0,20.98,2.21,29.64,6.61,8.66,4.41,15.43,10.41,20.29,18.01,4.86,7.6,7.3,16.34,7.3,26.22,0,11.1-2.43,20.83-7.3,29.18-4.87,8.36-11.63,14.86-20.29,19.49-8.66,4.64-18.55,6.95-29.64,6.95h-28.73v53.12h-46.06ZM600.09,193.8l-40.58-72.05,50.39-5.7,45.14,77.75h-54.95ZM562.47,106.47h20.98c3.8,0,6.95-.72,9.46-2.17,2.51-1.44,4.41-3.46,5.7-6.04,1.29-2.58,1.94-5.7,1.94-9.35,0-3.34-.65-6.19-1.94-8.55-1.29-2.35-3.27-4.18-5.93-5.47-2.66-1.29-6.04-1.94-10.15-1.94h-20.06v33.52Z"/>
  <path class="cls-1" d="M677.61,193.8V34.2h49.25v159.6h-49.25ZM711.81,148.43l-16.64-36.48,75.92-77.75h55.86l-115.14,114.23ZM777.7,193.8l-57.91-75.47,31.92-27.59,81.85,103.06h-55.86Z"/>
  <path class="cls-1" d="M18.24,467.4v-159.6h42.41l58.14,94.62-34.43-.23,58.82-94.39h41.04v159.6h-47.42v-38.08c0-13.68.34-25.99,1.03-36.94.68-10.94,1.86-21.81,3.53-32.6l5.47,14.36-38.53,59.74h-15.05l-37.85-59.74,5.7-14.36c1.67,10.19,2.85,20.63,3.53,31.35.68,10.72,1.03,23.45,1.03,38.19v38.08H18.24Z"/>
  <path class="cls-1" d="M197.9,467.4l64.07-159.6h38.76l63.61,159.6h-48.79l-25.54-69.77c-1.67-4.71-3.12-8.74-4.33-12.08-1.22-3.34-2.28-6.5-3.19-9.46-.91-2.96-1.82-6.16-2.74-9.58s-1.82-7.49-2.74-12.2h7.75c-.91,4.71-1.82,8.78-2.74,12.2-.91,3.42-1.86,6.61-2.85,9.58-.99,2.96-2.13,6.12-3.42,9.46-1.29,3.34-2.77,7.37-4.45,12.08l-25.54,69.77h-47.88ZM229.82,443.69l14.36-33.52h74.1l13,33.52h-101.46Z"/>
  <path class="cls-1" d="M404.47,467.4v-117.65h-49.25v-41.95h149.11v41.95h-50.62v117.65h-49.25Z"/>
  <path class="cls-1" d="M574.1,467.4v-117.65h-49.25v-41.95h149.11v41.95h-50.62v117.65h-49.25Z"/>
  <path class="cls-1" d="M699.04,467.4v-159.6h119.24v39.9h-72.05v79.8h76.15v39.9h-123.35ZM722.52,405.38v-37.39h87.32v37.39h-87.32Z"/>
  <path class="cls-1" d="M851.34,467.4v-159.6h74.78c11.09,0,20.98,2.21,29.64,6.61,8.66,4.41,15.43,10.41,20.29,18.01,4.86,7.6,7.3,16.34,7.3,26.22,0,11.1-2.43,20.83-7.3,29.18-4.87,8.36-11.63,14.86-20.29,19.49-8.66,4.64-18.55,6.95-29.64,6.95h-28.73v53.12h-46.06ZM935.02,467.4l-40.58-72.05,50.39-5.7,45.14,77.75h-54.95ZM897.4,380.07h20.98c3.8,0,6.95-.72,9.46-2.17,2.51-1.44,4.41-3.46,5.7-6.04,1.29-2.58,1.94-5.7,1.94-9.35,0-3.34-.65-6.19-1.94-8.55-1.29-2.36-3.27-4.18-5.93-5.47-2.66-1.29-6.04-1.94-10.15-1.94h-20.06v33.52Z"/>
</svg>