<?xml version="1.0" encoding="UTF-8"?>
<svg id="Layer_1" data-name="Layer 1" xmlns="http://www.w3.org/2000/svg" viewBox="0 0 54 20">
  <defs>
    <style>
      .cls-b, .cls-2, .cls-3, .cls-4, .cls-5, .cls-6, .cls-7, .cls-f {
        stroke-width: 0px;
      }

      .cls-b {
        fill: #d22026;
      }

      .cls-2 {
        fill: #aa795a;
      }

      .cls-3 {
        fill: #dcb88a;
      }

      .cls-4 {
        fill: #e8d0a7;
      }

      .cls-5 {
        fill: #91625d;
      }

      .cls-6 {
        fill: #f3e5c2;
      }

      .cls-7 {
        fill: #c2996c;
      }

      .cls-f {
        fill: #6cbe45;
      }
    </style>
  </defs>
  <g>
    <g>
      <rect class="cls-3" x="37" y="5" width="16" height="12"/>
      <rect class="cls-3" x="39" y="17" width="12" height="2"/>
      <rect class="cls-3" x="39" y="3" width="12" height="2"/>
    </g>
    <g>
      <rect class="cls-4" x="37" y="4" width="2" height="13"/>
      <rect class="cls-4" x="39" y="3" width="12" height="2"/>
      <rect class="cls-4" x="39" y="17" width="12" height="2"/>
      <rect class="cls-4" x="39" y="16" width="1" height="1"/>
      <rect class="cls-4" x="50" y="16" width="1" height="1"/>
      <rect class="cls-4" x="50" y="5" width="1" height="1"/>
      <rect class="cls-4" x="39" y="5" width="1" height="1"/>
      <rect class="cls-4" x="51" y="4" width="2" height="13"/>
    </g>
    <g>
      <rect class="cls-3" x="50" y="3" width="1" height="1"/>
      <rect class="cls-3" x="51" y="4" width="1" height="1"/>
      <rect class="cls-3" x="52" y="5" width="1" height="1"/>
      <rect class="cls-3" x="52" y="16" width="1" height="1"/>
      <rect class="cls-3" x="51" y="17" width="1" height="1"/>
      <rect class="cls-3" x="50" y="18" width="1" height="1"/>
      <rect class="cls-3" x="37" y="16" width="1" height="1"/>
      <rect class="cls-3" x="38" y="17" width="1" height="1"/>
      <rect class="cls-3" x="39" y="18" width="1" height="1"/>
      <rect class="cls-3" x="39" y="3" width="1" height="1"/>
      <rect class="cls-3" x="38" y="4" width="1" height="1"/>
      <rect class="cls-3" x="37" y="5" width="1" height="1"/>
    </g>
    <g>
      <rect class="cls-2" x="39" y="2" width="12" height="1"/>
      <rect class="cls-2" x="51" y="3" width="1" height="1"/>
      <rect class="cls-2" x="52" y="4" width="1" height="1"/>
      <rect class="cls-2" x="38" y="3" width="1" height="1"/>
      <rect class="cls-2" x="37" y="4" width="1" height="1"/>
      <rect class="cls-2" x="36" y="5" width="1" height="8"/>
      <rect class="cls-2" x="53" y="5" width="1" height="8"/>
    </g>
    <g>
      <rect class="cls-5" x="39" y="19" width="12" height="1"/>
      <rect class="cls-5" x="51" y="18" width="1" height="1"/>
      <rect class="cls-5" x="52" y="17" width="1" height="1"/>
      <rect class="cls-5" x="38" y="18" width="1" height="1"/>
      <rect class="cls-5" x="37" y="17" width="1" height="1"/>
      <rect class="cls-5" x="36" y="13" width="1" height="4"/>
      <rect class="cls-5" x="53" y="13" width="1" height="4"/>
    </g>
  </g>
  <g>
    <g>
      <g>
        <rect class="cls-7" x="19" y="15" width="16" height="2"/>
        <rect class="cls-7" x="20" y="17" width="14" height="2"/>
      </g>
      <g>
        <rect class="cls-7" x="19" y="15" width="16" height="2"/>
        <rect class="cls-7" x="20" y="17" width="14" height="2"/>
      </g>
    </g>
    <g>
      <rect class="cls-3" x="19" y="3" width="16" height="12"/>
      <rect class="cls-3" x="21" y="15" width="12" height="2"/>
      <rect class="cls-3" x="21" y="1" width="12" height="2"/>
    </g>
    <g>
      <rect class="cls-4" x="19" y="2" width="2" height="13"/>
      <rect class="cls-4" x="21" y="1" width="12" height="2"/>
      <rect class="cls-4" x="21" y="15" width="12" height="2"/>
      <rect class="cls-4" x="21" y="14" width="1" height="1"/>
      <rect class="cls-4" x="32" y="14" width="1" height="1"/>
      <rect class="cls-4" x="32" y="3" width="1" height="1"/>
      <rect class="cls-4" x="21" y="3" width="1" height="1"/>
      <rect class="cls-4" x="33" y="2" width="2" height="13"/>
    </g>
    <g>
      <rect class="cls-3" x="32" y="1" width="1" height="1"/>
      <rect class="cls-3" x="33" y="2" width="1" height="1"/>
      <rect class="cls-3" x="34" y="3" width="1" height="1"/>
      <rect class="cls-3" x="34" y="14" width="1" height="1"/>
      <rect class="cls-3" x="33" y="15" width="1" height="1"/>
      <rect class="cls-3" x="32" y="16" width="1" height="1"/>
      <rect class="cls-3" x="19" y="14" width="1" height="1"/>
      <rect class="cls-3" x="20" y="15" width="1" height="1"/>
      <rect class="cls-3" x="21" y="16" width="1" height="1"/>
      <rect class="cls-3" x="21" y="1" width="1" height="1"/>
      <rect class="cls-3" x="20" y="2" width="1" height="1"/>
      <rect class="cls-3" x="19" y="3" width="1" height="1"/>
    </g>
    <g>
      <rect class="cls-2" x="21" width="12" height="1"/>
      <rect class="cls-2" x="33" y="1" width="1" height="1"/>
      <rect class="cls-2" x="34" y="2" width="1" height="1"/>
      <rect class="cls-2" x="20" y="1" width="1" height="1"/>
      <rect class="cls-2" x="19" y="2" width="1" height="1"/>
      <rect class="cls-2" x="18" y="3" width="1" height="8"/>
      <rect class="cls-2" x="35" y="3" width="1" height="8"/>
    </g>
    <g>
      <rect class="cls-5" x="21" y="19" width="12" height="1"/>
      <rect class="cls-5" x="33" y="18" width="1" height="1"/>
      <rect class="cls-5" x="34" y="17" width="1" height="1"/>
      <rect class="cls-5" x="20" y="18" width="1" height="1"/>
      <rect class="cls-5" x="19" y="17" width="1" height="1"/>
      <rect class="cls-5" x="18" y="11" width="1" height="6"/>
      <rect class="cls-5" x="35" y="11" width="1" height="6"/>
    </g>
  </g>
  <g>
    <g>
      <g>
        <rect class="cls-7" x="1" y="15" width="16" height="2"/>
        <rect class="cls-7" x="2" y="17" width="14" height="2"/>
      </g>
      <g>
        <rect class="cls-7" x="1" y="15" width="16" height="2"/>
        <rect class="cls-7" x="2" y="17" width="14" height="2"/>
      </g>
    </g>
    <g>
      <rect class="cls-4" x="1" y="3" width="16" height="12"/>
      <rect class="cls-4" x="3" y="15" width="12" height="2"/>
      <rect class="cls-4" x="3" y="1" width="12" height="2"/>
    </g>
    <g>
      <rect class="cls-6" x="1" y="2" width="2" height="13"/>
      <rect class="cls-6" x="3" y="1" width="12" height="2"/>
      <rect class="cls-6" x="3" y="15" width="12" height="2"/>
      <rect class="cls-6" x="3" y="14" width="1" height="1"/>
      <rect class="cls-6" x="14" y="14" width="1" height="1"/>
      <rect class="cls-6" x="14" y="3" width="1" height="1"/>
      <rect class="cls-6" x="3" y="3" width="1" height="1"/>
      <rect class="cls-6" x="15" y="2" width="2" height="13"/>
    </g>
    <g>
      <rect class="cls-4" x="14" y="1" width="1" height="1"/>
      <rect class="cls-4" x="15" y="2" width="1" height="1"/>
      <rect class="cls-4" x="16" y="3" width="1" height="1"/>
      <rect class="cls-4" x="16" y="14" width="1" height="1"/>
      <rect class="cls-4" x="15" y="15" width="1" height="1"/>
      <rect class="cls-4" x="14" y="16" width="1" height="1"/>
      <rect class="cls-4" x="1" y="14" width="1" height="1"/>
      <rect class="cls-4" x="2" y="15" width="1" height="1"/>
      <rect class="cls-4" x="3" y="16" width="1" height="1"/>
      <rect class="cls-4" x="3" y="1" width="1" height="1"/>
      <rect class="cls-4" x="2" y="2" width="1" height="1"/>
      <rect class="cls-4" x="1" y="3" width="1" height="1"/>
    </g>
    <g>
      <rect class="cls-2" x="3" y="0" width="12" height="1"/>
      <rect class="cls-2" x="15" y="1" width="1" height="1"/>
      <rect class="cls-2" x="16" y="2" width="1" height="1"/>
      <rect class="cls-2" x="2" y="1" width="1" height="1"/>
      <rect class="cls-2" x="1" y="2" width="1" height="1"/>
      <rect class="cls-2" x="0" y="3" width="1" height="8"/>
      <rect class="cls-2" x="17" y="3" width="1" height="8"/>
    </g>
    <g>
      <rect class="cls-5" x="3" y="19" width="12" height="1"/>
      <rect class="cls-5" x="15" y="18" width="1" height="1"/>
      <rect class="cls-5" x="16" y="17" width="1" height="1"/>
      <rect class="cls-5" x="2" y="18" width="1" height="1"/>
      <rect class="cls-5" x="1" y="17" width="1" height="1"/>
      <rect class="cls-5" y="11" width="1" height="6"/>
      <rect class="cls-5" x="17" y="11" width="1" height="6"/>
    </g>
  </g>
  <g>
    <rect class="cls-f" x="25" y="7" width="4" height="4"/>
    <rect class="cls-b" x="24" y="7" width="1" height="4"/>
    <rect class="cls-b" x="29" y="7" width="1" height="4"/>
    <rect class="cls-b" x="25" y="11" width="4" height="1"/>
    <rect class="cls-b" x="25" y="6" width="4" height="1"/>
  </g>
  <g>
    <rect class="cls-f" x="43" y="9" width="4" height="4"/>
    <rect class="cls-b" x="42" y="9" width="1" height="4"/>
    <rect class="cls-b" x="47" y="9" width="1" height="4"/>
    <rect class="cls-b" x="43" y="13" width="4" height="1"/>
    <rect class="cls-b" x="43" y="8" width="4" height="1"/>
  </g>
  <g>
    <rect class="cls-f" x="7" y="7" width="4" height="4"/>
    <rect class="cls-b" x="6" y="7" width="1" height="4"/>
    <rect class="cls-b" x="11" y="7" width="1" height="4"/>
    <rect class="cls-b" x="7" y="11" width="4" height="1"/>
    <rect class="cls-b" x="7" y="6" width="4" height="1"/>
  </g>
</svg>